<?xml version="1.0" encoding="utf-8"?>
<!-- Generator: Adobe Illustrator 16.0.3, SVG Export Plug-In . SVG Version: 6.00 Build 0)  -->
<!DOCTYPE svg PUBLIC "-//W3C//DTD SVG 1.1//EN" "http://www.w3.org/Graphics/SVG/1.1/DTD/svg11.dtd">
<svg version="1.1" id="Layer_1" xmlns="http://www.w3.org/2000/svg" xmlns:xlink="http://www.w3.org/1999/xlink" x="0px" y="0px"
	 width="1193.407px" height="649.45px" viewBox="0 0 1193.407 649.45" enable-background="new 0 0 1193.407 649.45"
	 xml:space="preserve">
<g id="ARC">
	<path fill="none" d="M208.823,183.908c-0.24,3.071,1.346,7.504,3.479,9.726"/>
</g>
<g id="ARC_1_">
	<path fill="none" d="M419.229,402.511c3.711,12.919,17.383,25.834,30.491,28.806"/>
</g>
<g id="LWPOLYLINE">
	<polyline fill="none" points="212.303,193.634 204.868,195.668 196.484,197.949 188.84,199.982 181.951,201.88 182.034,191.052 
		187.925,189.48 192.491,188.263 197.098,187.034 202.5,185.594 208.823,183.908 	"/>
</g>
<g id="POLYLINE">
	<polyline fill="none" points="236.307,177.426 239.697,176.736 242.545,176.156 244.924,175.669 246.908,175.265 248.57,174.924 
		249.985,174.635 251.225,174.381 252.364,174.146 253.465,173.92 254.548,173.698 255.616,173.478 256.679,173.26 257.742,173.042 
		258.814,172.821 259.901,172.597 261.009,172.368 262.145,172.133 263.3,171.896 264.467,171.655 265.637,171.414 266.802,171.172 
		267.953,170.936 269.08,170.702 270.176,170.477 271.236,170.257 272.271,170.043 273.299,169.831 274.336,169.618 
		275.396,169.399 276.498,169.172 277.656,168.934 278.887,168.682 280.204,168.41 281.61,168.122 283.104,167.817 284.683,167.494 
		286.35,167.155 288.101,166.799 289.938,166.428 291.859,166.041 293.862,165.639 295.946,165.223 298.104,164.796 
		300.332,164.356 302.627,163.91 304.983,163.454 307.397,162.994 309.864,162.528 312.378,162.058 314.926,161.59 317.489,161.124 
		320.053,160.664 322.603,160.212 325.12,159.771 327.59,159.347 329.996,158.938 332.329,158.548 334.601,158.177 336.83,157.819 
		339.035,157.472 341.235,157.131 343.448,156.796 345.694,156.46 347.992,156.125 350.351,155.783 352.761,155.44 355.202,155.097 
		357.654,154.755 360.1,154.419 362.519,154.09 364.893,153.771 367.202,153.465 369.433,153.173 371.604,152.893 373.742,152.623 
		375.866,152.36 378.004,152.101 380.179,151.844 382.415,151.586 384.734,151.323 387.16,151.055 389.685,150.78 392.304,150.504 
		395.005,150.227 397.782,149.95 400.625,149.676 403.527,149.405 406.478,149.141 409.469,148.886 412.491,148.638 415.534,148.4 
		418.586,148.174 421.64,147.959 424.683,147.757 427.707,147.567 430.699,147.393 433.653,147.234 436.564,147.089 
		439.432,146.958 442.255,146.841 445.031,146.736 447.759,146.644 450.437,146.563 453.063,146.493 455.638,146.434 
		458.167,146.384 460.657,146.346 463.115,146.318 465.55,146.302 467.966,146.297 470.373,146.304 472.776,146.322 
		475.182,146.353 477.584,146.395 479.979,146.45 482.356,146.517 484.714,146.594 487.042,146.684 489.335,146.785 
		491.588,146.898 493.794,147.023 495.955,147.158 498.074,147.303 500.157,147.459 502.204,147.624 504.219,147.796 
		506.207,147.979 508.168,148.167 510.111,148.364 512.045,148.572 513.986,148.793 515.947,149.033 517.943,149.293 
		519.985,149.579 522.091,149.894 524.272,150.241 526.537,150.623 528.861,151.033 531.215,151.468 533.567,151.922 535.89,152.39 
		538.149,152.864 540.317,153.341 542.364,153.813 544.269,154.278 546.054,154.745 547.751,155.225 549.394,155.728 
		551.014,156.264 552.645,156.847 554.318,157.486 556.067,158.193 557.914,158.975 559.835,159.818 561.797,160.711 
		563.769,161.637 565.717,162.582 567.607,163.53 569.407,164.468 571.084,165.378 572.615,166.251 574.004,167.09 575.275,167.904 
		576.444,168.7 577.528,169.487 578.548,170.274 579.518,171.066 580.461,171.875 581.387,172.706 582.301,173.562 583.204,174.447 
		584.091,175.362 584.963,176.313 585.819,177.299 586.66,178.326 587.482,179.393 588.286,180.506 589.068,181.66 589.827,182.854 
		590.558,184.084 591.26,185.35 591.93,186.646 592.563,187.971 593.158,189.325 593.712,190.703 594.224,192.111 594.695,193.555 
		595.122,195.042 595.505,196.578 595.844,198.17 596.14,199.823 596.39,201.543 596.593,203.336 596.748,205.203 596.845,207.141 
		596.883,209.151 596.856,211.229 596.759,213.377 596.588,215.595 596.337,217.878 596.003,220.225 595.594,222.621 
		595.116,225.046 594.575,227.485 593.98,229.918 593.34,232.328 592.662,234.696 591.951,237.006 591.216,239.243 590.459,241.411 
		589.678,243.517 588.875,245.568 588.048,247.573 587.2,249.538 586.328,251.473 585.436,253.381 584.521,255.273 583.584,257.154 
		582.623,259.025 581.637,260.893 580.625,262.762 579.586,264.636 578.52,266.519 577.424,268.417 576.298,270.331 575.14,272.266 
		573.95,274.225 572.72,276.21 571.454,278.226 570.147,280.272 568.798,282.354 567.404,284.473 565.964,286.63 564.481,288.823 
		562.96,291.047 561.403,293.295 559.815,295.564 558.201,297.849 556.563,300.143 554.906,302.443 553.234,304.743 
		551.552,307.037 549.866,309.323 548.181,311.593 546.504,313.844 544.841,316.069 543.195,318.265 541.574,320.428 
		539.979,322.551 538.403,324.651 536.834,326.742 535.26,328.841 533.669,330.964 532.052,333.124 530.395,335.335 
		528.687,337.618 526.901,340.007 524.953,342.615 522.742,345.581 520.169,349.04 517.13,353.125 513.528,357.975 509.263,363.722 
		504.231,370.507 	"/>
</g>
<g id="POLYLINE_1_">
	<polyline fill="none" points="237.627,187.312 242.752,186.155 247.295,185.134 251.32,184.231 254.895,183.434 258.084,182.725 
		260.953,182.092 263.57,181.517 266,180.987 268.3,180.487 270.497,180.011 272.605,179.559 274.645,179.123 276.63,178.702 
		278.579,178.292 280.509,177.889 282.435,177.49 284.372,177.091 286.316,176.694 288.264,176.298 290.209,175.907 292.144,175.52 
		294.065,175.138 295.964,174.764 297.838,174.398 299.682,174.041 301.496,173.691 303.286,173.351 305.056,173.017 
		306.809,172.688 308.549,172.366 310.28,172.047 312.005,171.733 313.732,171.421 315.476,171.109 317.254,170.794 
		319.086,170.473 320.989,170.144 322.98,169.802 325.079,169.446 327.304,169.072 329.664,168.679 332.136,168.271 
		334.687,167.853 337.284,167.431 339.899,167.011 342.497,166.598 345.047,166.199 347.517,165.817 349.881,165.458 
		352.142,165.122 354.309,164.807 356.39,164.509 358.394,164.228 360.331,163.961 362.208,163.708 364.036,163.465 
		365.822,163.233 367.573,163.009 369.296,162.792 370.999,162.582 372.686,162.376 374.365,162.174 376.044,161.976 
		377.729,161.779 379.423,161.585 381.124,161.393 382.826,161.203 384.519,161.016 386.2,160.834 387.86,160.658 389.496,160.488 
		391.096,160.324 392.662,160.168 394.202,160.019 395.729,159.875 397.255,159.738 398.795,159.605 400.363,159.477 
		401.971,159.352 403.632,159.23 405.359,159.11 407.156,158.993 409.031,158.881 410.987,158.774 413.03,158.674 415.165,158.58 
		417.396,158.494 419.729,158.418 422.164,158.353 424.675,158.298 427.235,158.254 429.814,158.219 432.382,158.197 
		434.91,158.185 437.368,158.183 439.726,158.193 441.966,158.212 444.11,158.246 446.194,158.294 448.25,158.36 450.311,158.444 
		452.41,158.548 454.583,158.678 456.861,158.831 459.27,159.011 461.797,159.22 464.422,159.459 467.127,159.728 469.887,160.031 
		472.685,160.368 475.498,160.741 478.307,161.152 481.09,161.6 483.834,162.081 486.521,162.593 489.134,163.128 491.659,163.682 
		494.077,164.251 496.376,164.83 498.537,165.415 500.551,166.001 502.433,166.594 504.203,167.199 505.881,167.822 
		507.486,168.468 509.041,169.144 510.564,169.854 512.078,170.607 513.595,171.403 515.112,172.243 516.621,173.123 
		518.111,174.038 519.575,174.987 521,175.964 522.38,176.966 523.705,177.991 524.967,179.034 526.168,180.098 527.312,181.183 
		528.398,182.29 529.433,183.422 530.419,184.58 531.36,185.768 532.256,186.983 533.112,188.228 533.928,189.504 534.697,190.805 
		535.422,192.132 536.1,193.481 536.726,194.851 537.3,196.238 537.821,197.642 538.286,199.061 538.695,200.497 539.051,201.955 
		539.354,203.435 539.605,204.943 539.805,206.481 539.958,208.053 540.06,209.662 540.116,211.312 540.124,212.998 
		540.084,214.717 540,216.467 539.867,218.243 539.689,220.042 539.463,221.861 539.192,223.697 538.875,225.545 538.518,227.393 
		538.125,229.232 537.704,231.051 537.258,232.84 536.792,234.585 536.314,236.277 535.831,237.905 535.344,239.461 534.85,240.953 
		534.35,242.395 533.837,243.795 533.311,245.167 532.767,246.524 532.2,247.877 531.609,249.237 530.992,250.615 530.346,252.013 
		529.671,253.434 528.969,254.878 528.238,256.346 527.477,257.839 526.686,259.359 525.865,260.906 525.014,262.483 
		524.134,264.086 523.225,265.714 522.287,267.363 521.321,269.033 520.328,270.721 519.307,272.423 518.259,274.139 
		517.187,275.866 516.091,277.598 514.978,279.331 513.852,281.062 512.714,282.783 511.572,284.492 510.428,286.182 
		509.286,287.85 508.151,289.491 507.023,291.104 505.903,292.69 504.793,294.25 503.693,295.784 502.605,297.292 501.531,298.773 
		500.469,300.23 499.42,301.661 498.383,303.075 497.354,304.471 496.328,305.858 495.302,307.242 494.272,308.626 493.236,310.016 
		492.189,311.418 491.128,312.83 490.063,314.252 489,315.666 487.947,317.063 486.913,318.434 485.908,319.765 484.937,321.047 
		484.01,322.27 483.132,323.427 482.294,324.531 481.481,325.595 480.683,326.642 479.885,327.686 479.074,328.743 478.239,329.831 
		477.365,330.969 476.441,332.168 475.464,333.437 474.433,334.775 473.343,336.188 472.192,337.675 470.98,339.239 
		469.703,340.888 468.36,342.618 	"/>
</g>
<g id="LWPOLYLINE_1_">
	<polyline fill="none" points="419.229,402.511 412.204,410.32 407.176,415.774 401.136,422.102 394.406,428.846 388.578,434.567 
		382.776,440.186 377.158,445.468 370.302,451.562 364.147,456.774 358.488,461.457 353.979,465.138 413.11,465.138 
		417.364,461.659 422.931,456.837 431.231,449.488 437.716,443.532 443.341,437.981 449.72,431.316 	"/>
</g>
<g id="LWPOLYLINE_2_">
	<polyline fill="none" points="71.454,234.727 63.756,234.758 59.907,234.783 56.479,234.858 52.9,235.282 49.161,235.874 
		45.734,236.659 42.756,237.663 40.516,238.672 38.255,239.943 35.932,241.606 33.79,243.612 32.154,245.782 31.507,246.987 
		30.841,249.059 30.402,251.879 30.208,254.133 30.104,255.959 29.854,265.184 29.825,272.469 29.981,281.575 30.161,285.016 
		30.658,289.374 31.28,291.732 32.474,294.273 33.891,296.28 35.726,298.096 38.249,299.806 41.323,301.296 44.063,302.352 
		48.838,303.761 52.353,304.44 57.049,304.899 61.119,305.074 66.186,305.165 71.554,305.181 78.85,305.091 85.932,304.859 
		90.588,304.555 94.527,304.113 97.705,303.532 99.522,303.09 102.043,302.34 104.837,301.172 108.274,298.938 109.936,297.46 
		111.49,295.699 112.694,293.842 113.817,291.173 114.267,289.037 114.505,286.556 114.671,282.598 114.733,279.359 
		114.696,264.475 114.555,259.309 114.41,256.066 114.177,252.875 113.637,249.082 113.22,247.488 112.181,245.228 110.521,243.033 
		109.021,241.506 106.838,239.758 103.884,238.068 100.304,236.721 96.613,235.835 92.395,235.206 88.758,234.916 84.014,234.78 
		79.151,234.733 74.188,234.721 71.454,234.727 	"/>
</g>
<g id="LWPOLYLINE_3_">
	<polyline fill="none" points="71.959,248.263 66.489,248.319 60.207,248.445 56.052,248.619 54.434,248.748 53.21,248.902 
		51.662,249.227 50.482,249.574 49.135,250.123 48.223,250.645 47.264,251.423 46.613,252.239 46.023,253.534 45.728,254.953 
		45.586,256.577 45.481,259.205 45.402,264.47 45.339,275.811 45.26,283.707 45.344,286.519 45.919,287.811 46.473,288.379 
		47.071,288.839 48.199,289.479 49.622,290.084 51.458,290.632 54.189,291.139 58.531,291.603 64.975,291.993 72.975,292.198 
		84.098,291.984 90.972,291.414 93.773,290.721 95.43,289.874 96.722,288.97 97.271,288.459 97.737,287.741 97.98,286.757 
		98.143,285.122 98.239,283.204 98.308,280.566 98.402,264.066 98.355,257.182 98.25,254.05 98.024,252.749 97.624,252.068 
		97.091,251.517 95.737,250.541 93.917,249.594 90.737,248.722 85.735,248.213 77.53,248.231 73.681,248.25 71.959,248.263 	"/>
</g>
<g id="LWPOLYLINE_4_">
	<polyline fill="none" points="164.004,261.965 164.004,248.97 152.361,248.97 149.348,249.1 146.543,249.391 143.922,249.769 
		140.929,250.424 138.797,251.062 136.538,251.877 134.425,252.846 132.596,253.94 131.069,255.152 129.616,256.684 
		128.101,259.089 127.235,261.369 126.753,263.341 126.478,265.031 126.335,266.12 126.314,305.9 141.376,305.9 141.388,267.701 
		141.596,265.84 141.971,265.052 142.401,264.542 143.862,263.591 144.572,263.298 146.815,262.68 147.624,262.532 149.243,262.309 
		152.203,262.092 153.982,262.074 164.004,261.965 	"/>
</g>
<g id="LWPOLYLINE_5_">
	<polyline fill="none" points="174.696,234.446 189.94,234.446 189.94,249.295 225.044,249.295 227.601,249.453 229.789,249.63 
		232.082,249.874 235.396,250.42 237.887,251.024 239.569,251.538 241.089,252.095 242.71,252.81 244.585,253.839 246.098,254.909 
		247.187,255.866 248.33,257.064 249.242,258.185 250.162,259.495 250.963,260.899 251.668,262.64 251.934,263.75 252.055,265.07 
		252.127,267.39 252.154,269.245 252.183,286.008 252.002,290.085 251.563,292.112 251.151,293.229 250.374,294.891 249.23,296.892 
		248.778,297.531 247.411,299.003 246.148,299.975 244.539,300.978 242.053,302.227 239.467,303.181 237.375,303.732 
		234.902,304.228 231.467,304.708 227.305,304.973 217.794,305.141 204.811,305.068 198.759,304.634 194.833,303.958 
		189.801,302.648 186.303,301.397 183.795,300.207 181.91,299.063 179.675,297.301 178.382,295.929 177.06,294.014 176.004,291.668 
		175.4,289.611 174.945,287.496 174.696,285.854 174.696,286.027 174.696,234.446 	"/>
</g>
<g id="ELLIPSE">
	<path fill="none" d="M264.061,234.279c-0.008,4.201,4.104,7.613,9.18,7.623c5.078,0.01,9.201-3.389,9.209-7.589
		c0.007-4.2-4.103-7.613-9.181-7.623C268.19,226.681,264.068,230.078,264.061,234.279L264.061,234.279"/>
</g>
<g id="LWPOLYLINE_6_">
	<polyline fill="none" points="265.523,251.104 280.572,251.104 280.572,305.37 265.523,305.37 265.523,251.104 	"/>
</g>
<g id="LWPOLYLINE_7_">
	<polyline fill="none" points="187.755,262.356 224.644,262.356 226.673,262.48 228.569,262.633 230.327,262.82 232.794,263.227 
		234.436,263.625 235.406,263.921 236.2,264.213 236.924,264.532 237.548,264.904 237.897,265.206 238,265.339 238.306,265.781 
		238.482,266.154 238.771,267.243 238.968,268.038 239.093,269.349 239.122,285.731 238.735,287.508 238.358,288.454 
		238.038,288.941 237.621,289.273 236.625,289.949 235.44,290.583 234.425,291.003 232.712,291.347 230.146,291.707 226.775,291.92 
		217.716,292.081 205.314,292.011 200.339,291.653 197.592,291.179 193.65,290.154 191.313,289.319 190.002,288.697 
		189.407,288.227 188.767,287.44 188.704,287.349 188.437,286.836 187.924,285.094 187.813,283.918 187.772,283.646 
		187.755,262.356 	"/>
</g>
<g id="LWPOLYLINE_8_">
	<polyline fill="none" points="315.483,234.251 315.483,249.386 338.608,249.386 338.608,262.608 315.483,262.608 315.483,305.601 
		300.426,305.601 300.426,262.608 291.858,262.608 291.858,249.386 300.426,249.386 300.426,234.251 315.483,234.251 	"/>
</g>
<g id="LWPOLYLINE_9_">
	<polyline fill="none" points="438.403,234.091 453.959,234.091 453.959,305.605 438.403,305.605 438.403,234.091 	"/>
</g>
<g id="LWPOLYLINE_10_">
	<polyline fill="none" points="411.045,277.317 411.015,283.197 410.981,285.582 410.94,286.934 410.857,288.047 410.724,288.974 
		410.601,289.472 410.373,290.031 409.924,290.637 409.527,290.949 408.793,291.31 407.552,291.716 406.993,291.879 
		406.149,292.077 404.985,292.114 368.532,292.104 366.412,291.958 365.127,291.801 363.872,291.522 362.854,291.123 
		361.954,290.593 361.264,290.039 360.833,289.571 360.453,288.945 360.289,287.896 360.259,286.855 360.272,283.43 
		360.387,281.782 360.959,280.552 361.953,279.471 363.075,278.674 364.418,278.061 367.296,277.5 368.919,277.37 372.193,277.317 
		411.045,277.317 	"/>
</g>
<g id="LWPOLYLINE_11_">
	<polyline fill="none" points="409.79,264.231 409.737,257.874 409.613,257.501 409.296,257.052 408.888,256.745 408.389,256.499 
		407.222,256.101 406.814,255.992 406.075,255.822 405.546,255.727 405.145,255.671 384.498,255.627 384.498,243.154 
		404.439,243.154 405.753,243.256 407.838,243.495 409.28,243.733 410.656,244.034 412.209,244.457 413.908,245.019 
		415.383,245.607 416.834,246.293 418.511,247.262 420.142,248.412 420.817,248.951 421.692,249.72 423.056,251.23 424.045,252.828 
		424.543,253.865 425.016,255.03 425.569,256.886 425.752,258.094 425.878,265.266 425.949,266.469 426.027,268.33 426.076,269.935 
		426.203,278.323 426.218,284.387 426.157,288.445 425.757,292.201 425.124,294.256 424.567,295.495 423.44,297.319 
		422.509,298.485 420.68,300.276 419.435,301.189 418.345,301.838 416.598,302.703 414.439,303.533 412.182,304.226 410.825,304.58 
		409.337,304.877 407.169,305.104 405.955,305.188 404.877,305.199 368.716,305.199 367.023,305.021 364.632,304.656 
		362.564,304.265 359.9,303.593 358.012,302.952 355.862,302.035 354.434,301.301 352.173,299.859 350.482,298.51 348.896,296.982 
		348.144,296.082 346.928,294.192 346.44,293.119 345.967,291.404 345.852,290.646 345.681,288.501 345.626,287.116 
		345.607,286.453 345.624,280.125 346.027,277.152 346.356,276.279 347.066,274.873 347.834,273.651 349.32,271.777 
		350.085,270.995 351.449,269.842 352.88,268.887 354.034,268.235 355.257,267.617 356.51,267.046 358.293,266.323 359.67,265.837 
		362.114,265.182 364.315,264.792 366.126,264.564 367.944,264.39 369.01,264.301 370.012,264.231 409.79,264.231 	"/>
</g>
<g id="LWPOLYLINE_12_">
	<polyline fill="none" points="615.286,311.154 615.286,324.664 601.431,324.72 598.555,324.773 596.455,324.865 594.374,325.125 
		592.033,325.551 590.821,325.79 589.701,326.092 588.861,326.521 588.327,326.97 587.628,327.736 587.142,328.869 587.051,329.669 
		586.976,331.014 587.076,335.06 588.104,336.616 588.585,336.917 590.072,337.614 591.119,337.993 592.068,338.282 
		593.625,338.671 595.76,339.037 597.774,339.247 599.769,339.355 602.313,339.391 617.657,339.435 625.269,339.528 630.51,340.035 
		633.286,340.535 636.447,341.324 639.098,342.317 641.361,343.44 643.522,344.652 645.594,346.117 646.796,347.286 648.25,349.081 
		649.414,350.861 650.523,353.187 650.826,354.255 651.05,356.088 651.124,357.725 651.105,365.892 650.848,368.536 650.074,371.05 
		649.48,372.31 648.136,374.397 646.775,375.911 644.625,377.504 642.885,378.381 641.289,379.046 639.379,379.726 636.449,380.568 
		632.557,381.347 630.122,381.702 627.928,381.94 626.931,381.984 571.508,382.101 571.343,368.59 612.909,368.54 624.504,368.445 
		628.46,368.274 630.676,367.849 631.744,367.497 633.004,366.89 633.373,366.665 634.199,366.093 634.954,365.419 635.397,364.593 
		635.552,363.137 635.583,361.589 635.572,360.044 635.177,357.02 633.893,355.387 632.62,354.66 631.245,354.222 629.553,353.767 
		627.392,353.378 625.258,353.201 621.735,353.093 617.106,353.042 601.214,352.947 593.89,352.652 587.301,351.54 582.673,349.975 
		579.417,348.389 576.424,346.076 574.324,343.873 572.724,341.353 571.793,337.306 571.634,335.299 571.68,328.632 
		571.979,326.133 572.48,324.098 573.164,322.41 574.733,319.836 576.282,318.022 577.805,316.677 580.493,315.004 582.536,314.097 
		585.459,313.152 587.746,312.623 590.715,312.105 592.941,311.827 596.556,311.543 598.892,311.43 601.974,311.313 
		605.078,311.234 608.162,311.19 611.586,311.162 615.286,311.154 	"/>
</g>
<g id="LWPOLYLINE_13_">
	<polyline fill="none" points="723.394,368.105 723.394,324.842 738.732,324.842 738.732,387.962 738.444,390.233 737.793,391.894 
		737.551,392.448 736.823,393.793 736.129,394.614 735.059,395.795 734.248,396.569 733.277,397.333 731.882,398.281 
		730.82,398.841 729.422,399.428 726.978,400.368 726.237,400.627 723.425,401.399 721.901,401.681 720.658,401.865 
		718.508,402.129 715.843,402.375 713.847,402.479 710.709,402.571 707.315,402.619 696.281,402.632 696.281,389.702 
		716.061,389.688 719.075,389.651 720.592,389.475 721.439,389.22 722.524,388.675 722.887,388.139 723.174,387.187 
		723.229,386.748 723.302,386.167 723.394,381.199 704,381.181 692.16,381.119 686.278,381.012 682.889,380.76 681.016,380.513 
		678.84,380.14 677.03,379.763 674.628,379.13 671.928,378.084 670.117,377.08 668.468,375.919 666.857,374.531 665.59,373.228 
		664.456,371.776 663.813,370.642 663.207,368.944 662.869,367.116 662.727,365.115 662.638,362.718 662.51,356.513 
		662.372,325.107 677.378,325.091 677.442,353.972 677.492,358.664 677.563,361.979 677.63,363.487 677.68,363.979 677.938,364.906 
		678.366,365.515 678.894,365.931 679.587,366.343 680.493,366.765 681.764,367.255 682.71,367.565 684.373,367.858 
		685.864,367.927 687.356,367.963 691.165,368.015 696.799,368.055 702.013,368.079 710.459,368.097 723.394,368.105 	"/>
</g>
<g id="LWPOLYLINE_14_">
	<polyline fill="none" points="792.086,325.255 792.018,338.403 781.414,338.414 778.124,338.426 773.601,338.464 772.036,338.497 
		770.554,338.631 769.566,338.793 768.57,338.989 767.043,339.361 766.564,339.522 766.047,339.792 765.769,340.075 
		765.484,340.772 765.394,341.519 765.367,342.347 765.48,343.657 765.75,344.363 766.383,345.027 766.859,345.304 767.646,345.635 
		769.558,346.065 770.884,346.129 772.86,346.16 788.158,346.216 798.111,346.298 801.907,346.403 807.758,347.188 811.494,348.411 
		812.828,349.02 814.613,350.047 815.771,350.89 817.393,352.345 818.685,353.877 819.126,354.575 819.889,356.184 820.397,357.616 
		820.824,359.511 820.859,359.936 820.898,361.586 820.901,362.819 820.881,365.611 820.777,367.866 820.439,369.714 
		819.818,371.52 819.33,372.563 818.291,374.227 817.575,375.103 816.291,376.35 815.343,377.089 813.623,378.167 812.758,378.62 
		810.936,379.419 809.708,379.854 808.782,380.135 807.236,380.518 806.055,380.75 804.134,381.039 802.152,381.22 800.503,381.289 
		797.782,381.357 793.999,381.417 791.288,381.441 786.843,381.478 750.438,381.556 750.572,368.34 778.701,368.322 
		790.463,368.293 797.541,368.25 800.167,368.198 802.251,367.877 802.796,367.698 803.477,367.385 804.033,367.051 804.49,366.72 
		804.961,366.295 805.573,365.351 805.682,364.563 805.715,363.462 805.594,362.692 805.399,362.153 805.091,361.639 
		804.627,361.151 803.553,360.57 803.058,360.404 801.567,360.095 800.744,360.031 799.924,359.991 796.221,359.919 
		791.943,359.893 782.976,359.859 778.371,359.809 774.901,359.686 771.457,359.411 769.523,359.139 765.495,358.321 
		762.996,357.663 761.59,357.235 759.578,356.498 757.363,355.391 756.023,354.481 754.556,353.248 753.448,352.13 751.735,349.619 
		750.83,346.016 750.616,342.673 750.688,339.294 750.939,337.131 751.391,335.407 752.624,332.897 753.735,331.348 
		754.902,330.149 756.337,329.123 757.988,328.235 760.233,327.273 761.293,326.908 762.938,326.459 765.297,326.012 767.6,325.71 
		769.405,325.572 771.869,325.458 776.809,325.345 781.825,325.291 792.086,325.255 	"/>
</g>
<g id="LWPOLYLINE_15_">
	<polyline fill="none" points="838.955,310.611 854.013,310.611 854.013,325.746 877.138,325.746 877.138,338.969 854.013,338.969 
		854.013,381.96 838.955,381.96 838.955,338.969 830.389,338.969 830.389,325.746 838.955,325.746 838.955,310.611 	"/>
</g>
<g id="LWPOLYLINE_16_">
	<polyline fill="none" points="930.52,368.557 930.576,381.704 923.309,381.684 917.468,381.623 913.766,381.518 909.736,381.237 
		907.434,380.989 904.613,380.521 901.257,379.697 898.902,378.931 895.493,377.313 894.25,376.467 892.493,374.958 
		891.306,373.739 889.646,371.698 888.756,370.323 887.752,368.018 887.403,366.133 887.222,362.819 887.155,359.28 
		887.131,356.815 887.147,345.224 887.307,340.588 888.151,337.499 889.018,335.813 890.155,334.184 891.24,332.906 
		893.074,331.254 895.64,329.564 897.514,328.583 900.173,327.483 902.731,326.672 905.604,325.967 907.923,325.612 
		911.315,325.316 913.599,325.212 918.62,325.161 933.508,325.15 941.396,325.179 946.252,325.683 948.104,326.09 951.691,327.181 
		953.674,328.019 955.099,328.794 957.451,330.386 958.742,331.428 960.453,333.136 961.112,333.936 962.142,335.418 
		963.032,337.208 963.457,339.091 963.604,340.61 963.791,344.309 963.896,348.918 963.937,352.622 963.956,355.829 
		963.966,359.446 963.972,360.691 902.651,360.752 902.721,361.689 902.975,362.841 903.403,363.581 904.047,364.313 
		905.001,365.145 906.14,365.887 907.5,366.522 909.306,367.091 910.942,367.471 912.768,367.813 914.976,368.123 917.55,368.36 
		919.028,368.449 922.158,368.524 930.52,368.557 	"/>
</g>
<g id="LWPOLYLINE_17_">
	<polyline fill="none" points="902.094,347.279 948.986,347.279 948.986,343.085 948.856,341.533 948.386,340.736 948.031,340.36 
		947.485,339.941 946.285,339.329 945.37,338.997 944.04,338.617 943.101,338.509 941.801,338.356 940.882,338.254 939.581,338.109 
		938.609,338.023 928.984,338.023 919.854,338.023 914.013,338.023 911.302,338.107 910.077,338.218 908.77,338.435 
		907.793,338.596 906.805,338.744 905.418,339.124 903.762,339.916 902.873,340.653 902.094,341.851 902.094,347.279 	"/>
</g>
<g id="LWPOLYLINE_18_">
	<polyline fill="none" points="990.835,381.966 975.731,381.966 975.738,377.402 975.746,373.007 975.769,366.454 975.769,359.982 
		975.884,354.092 975.977,348.947 976.142,343.816 976.403,339.923 977.171,336.841 977.696,335.607 978.624,333.946 
		979.602,332.713 981.702,330.896 983.658,329.545 985.811,328.331 989.126,327.027 991.614,326.373 995.236,325.703 
		999.228,325.297 1003.218,325.221 1007.371,325.319 1011.544,325.558 1016.049,326.169 1018.995,326.744 1021.478,327.339 
		1023.441,327.971 1025.469,328.906 1028.271,330.86 1030.115,329.733 1031.874,328.772 1034.277,327.729 1036.387,327.063 
		1039.263,326.394 1042.363,325.849 1045.608,325.509 1049.763,325.291 1052.589,325.221 1058.064,325.404 1062.402,325.906 
		1067.091,326.951 1070.664,328.395 1072.726,329.621 1074.375,330.899 1076.323,333.023 1077.992,335.671 1078.884,337.961 
		1079.3,340.563 1079.421,343.56 1079.609,358.324 1079.66,381.966 1064.625,381.966 1064.608,356.168 1064.594,349.284 
		1064.56,345.053 1064.456,343.635 1064.163,342.792 1063.821,342.301 1063.085,341.591 1062.276,340.982 1060.556,339.992 
		1059.355,339.519 1057.118,338.897 1054.622,338.396 1052.403,338.078 1049.021,337.903 1046.027,338.041 1044.131,338.298 
		1041.996,338.769 1040.005,339.408 1038.228,340.32 1037.028,341.353 1036.437,342.084 1036.136,342.934 1036.04,343.54 
		1035.882,345.217 1035.8,346.789 1035.67,350.69 1035.531,358.988 1035.494,364.048 1035.459,371.846 1035.438,381.966 
		1020.125,381.966 1020.121,361.809 1020.114,351.689 1020.098,346.547 1020.086,345.049 1020.067,343.967 1019.975,343.092 
		1019.717,342.546 1019.331,342.051 1018.529,341.322 1017.177,340.399 1014.55,339.115 1012.173,338.449 1008.425,337.976 
		1006.196,337.839 1004.046,337.8 1001.139,337.972 999.238,338.273 997.275,338.736 996.15,339.104 994.497,339.854 
		993.272,340.687 992.282,341.681 991.866,342.277 991.644,342.992 991.514,343.798 991.182,348.534 990.952,358.655 
		990.872,367.698 990.835,381.966 	"/>
</g>
<g id="LWPOLYLINE_19_">
	<polyline fill="none" points="1134.307,325.255 1134.242,338.403 1123.677,338.414 1119.858,338.428 1118.116,338.438 
		1116.456,338.454 1114.545,338.489 1112.882,338.616 1111.977,338.759 1110.478,339.058 1109.52,339.286 1108.9,339.48 
		1108.348,339.737 1107.891,340.228 1107.685,340.882 1107.618,341.474 1107.6,342.831 1108.067,344.508 1109.284,345.4 
		1111.635,346.052 1112.062,346.085 1115.71,346.165 1119.693,346.186 1132.888,346.226 1139.272,346.28 1143.674,346.386 
		1148.329,346.837 1151.856,347.721 1153.791,348.443 1155.112,349.052 1156.407,349.774 1157.846,350.774 1159.935,352.681 
		1160.889,353.852 1161.893,355.662 1162.509,357.272 1163.072,359.826 1163.119,361.477 1163.08,366.541 1162.516,370.215 
		1161.825,372.002 1160.603,374.108 1159.597,375.322 1158.803,376.097 1155.914,378.13 1154.58,378.812 1152.68,379.6 
		1150.865,380.172 1149.331,380.545 1147.152,380.928 1145.8,381.105 1143.67,381.26 1140.52,381.348 1132.303,381.453 
		1112.723,381.535 1092.659,381.556 1092.791,368.361 1138.86,368.257 1141.436,368.225 1143.596,368.059 1144.579,367.845 
		1145.548,367.464 1145.878,367.283 1146.513,366.872 1146.911,366.55 1147.26,366.213 1147.719,365.569 1147.863,364.979 
		1147.93,364.05 1147.863,362.888 1147.587,362.09 1146.967,361.255 1146,360.661 1145.451,360.456 1144.688,360.243 
		1142.833,360.022 1140.272,359.945 1138.031,359.917 1126.495,359.865 1119.035,359.769 1116.216,359.634 1113.461,359.384 
		1111.006,359.013 1109.474,358.716 1107.606,358.293 1105.934,357.862 1104.118,357.333 1101.693,356.453 1099.046,355.05 
		1096.541,353.02 1095.877,352.354 1094.374,350.438 1093.698,348.96 1093.191,346.968 1092.927,344.735 1092.83,342.234 
		1092.873,339.978 1093.04,337.919 1093.483,335.798 1094.133,334.188 1094.834,332.914 1095.344,332.146 1096.582,330.66 
		1097.467,329.871 1098.658,329.061 1100.308,328.188 1101.953,327.466 1103.295,326.981 1105.167,326.457 1107.004,326.095 
		1109.132,325.786 1111.314,325.591 1113.309,325.489 1117.287,325.373 1121.766,325.306 1134.307,325.255 	"/>
</g>
<g id="ARC_2_">
	<path fill="none" d="M237.627,187.312c0.804-2.84,0.201-7.356-1.321-9.886"/>
</g>
<g id="ARC_3_">
	<path fill="none" d="M504.231,370.507c-4.943-14.126-20.963-26.582-35.871-27.889"/>
</g>
<g id="HATCH">
	<g id="XMLID_1_">
		<g>
			<path fill="#008C99" d="M273.239,231.814c5.1,0,9.29,3.28,9.29,7.65c-0.18,4.01-4.19,7.29-9.29,7.29c-5.1,0-9.11-3.28-9.11-7.65
				C264.129,235.094,268.139,231.814,273.239,231.814z"/>
			<polygon fill="#008C99" points="1163.099,361.644 1163.099,366.374 1162.549,370.384 1161.829,371.844 1160.549,374.034 
				1159.639,375.483 1158.729,376.214 1155.999,378.034 1154.539,378.764 1152.719,379.494 1150.889,380.224 1149.249,380.584 
				1147.069,380.954 1145.789,380.954 1143.609,381.313 1140.509,381.313 1132.31,381.313 1112.819,381.684 1092.589,381.684 
				1092.77,368.204 1138.869,368.204 1141.419,368.204 1143.609,368.204 1144.52,367.834 1145.609,367.474 1146.52,366.744 
				1147.249,366.374 1147.799,365.644 1147.799,364.924 1147.979,364.194 1147.799,362.733 1147.619,362.004 1146.889,361.273 
				1145.969,360.544 1145.429,360.544 1144.699,360.184 1142.879,360.184 1140.329,359.813 1137.959,359.813 1126.479,359.813 
				1119.009,359.813 1116.279,359.454 1113.539,359.454 1110.989,359.094 1109.539,358.724 1107.529,358.364 1105.889,357.994 
				1104.069,357.264 1101.699,356.534 1098.969,355.084 1096.599,352.894 1095.869,352.534 1094.409,350.344 1093.679,348.884 
				1093.139,347.063 1092.949,344.874 1092.77,342.324 1092.949,340.144 1092.949,337.954 1093.499,335.764 1094.049,334.313 
				1094.779,332.854 1095.319,332.124 1096.599,330.664 1097.509,329.934 1098.599,329.214 1100.239,328.114 1101.879,327.384 
				1103.339,327.023 1105.159,326.294 1106.979,325.924 1109.169,325.924 1111.359,325.563 1113.359,325.563 1117.369,325.204 
				1121.739,325.204 1134.319,325.204 1134.319,338.324 1123.749,338.324 1119.919,338.324 1118.099,338.324 1116.459,338.324 
				1114.449,338.324 1112.819,338.684 1111.899,338.684 1110.449,339.044 1109.539,339.414 1108.989,339.414 1108.259,339.773 
				1107.899,340.144 1107.709,340.874 1107.529,341.594 1107.529,342.694 1108.079,344.514 1109.349,345.244 1111.719,345.974 
				1115.729,346.334 1119.739,346.334 1132.859,346.334 1139.229,346.334 1143.609,346.334 1148.339,346.704 1151.799,347.794 
				1153.81,348.523 1155.079,348.884 1156.359,349.614 1157.819,350.704 1159.999,352.534 1160.909,353.983 1161.829,355.813 
				1162.549,357.264 1163.099,359.813 			"/>
			<polygon fill="#008C99" points="1079.649,358.364 1079.649,382.044 1064.709,382.044 1064.529,356.174 1064.529,349.254 
				1064.529,344.874 1064.529,343.784 1064.169,342.694 1063.079,341.594 1062.339,340.874 1060.52,340.144 1059.429,339.414 
				1057.06,339.044 1054.689,338.324 1052.319,337.954 1049.039,337.954 1045.949,337.954 1044.129,338.324 1041.939,338.684 
				1039.929,339.414 1038.289,340.144 1037.02,341.233 1036.469,341.964 1036.109,343.054 1036.109,343.424 1035.929,345.244 
				1035.739,346.704 1035.739,350.704 1035.56,359.094 1035.56,364.194 1035.379,371.844 1035.379,382.044 1020.079,382.044 
				1020.079,361.644 1020.079,351.804 1020.079,346.704 1020.079,344.874 1020.079,344.154 1019.889,343.054 1019.529,342.324 
				1018.619,341.233 1017.159,340.504 1014.609,339.044 1012.239,338.324 1008.409,337.954 1006.229,337.954 1004.039,337.954 
				1001.119,337.954 999.299,338.324 997.299,338.684 996.209,339.044 994.569,339.773 993.289,340.874 992.199,341.594 
				991.829,342.324 991.649,343.054 991.469,343.784 991.099,348.523 990.919,358.724 990.919,367.834 990.919,382.044 
				975.799,382.044 975.799,377.304 975.799,372.934 975.799,366.374 975.799,359.813 975.799,353.983 975.979,348.884 
				976.169,343.784 976.349,339.773 977.259,336.864 977.619,335.764 978.529,333.944 979.629,332.854 981.629,331.034 
				983.629,329.574 985.819,328.483 989.099,327.023 991.649,326.294 995.289,325.563 999.299,325.204 1003.129,325.204 
				1007.319,325.204 1011.509,325.563 1016.069,326.294 1018.979,326.654 1021.529,327.384 1023.349,328.114 1025.539,328.844 
				1028.279,331.034 1030.099,329.574 1031.919,328.844 1034.289,327.754 1036.469,327.023 1039.209,326.294 1042.299,325.924 
				1045.579,325.563 1049.77,325.204 1052.509,325.204 1058.149,325.563 1062.339,325.924 1067.079,327.023 1070.729,328.483 
				1072.729,329.574 1074.369,331.034 1076.369,332.854 1078.009,335.764 1078.929,337.954 1079.289,340.504 1079.469,343.424 			
				"/>
			<path fill="#008C99" d="M963.959,359.454v1.09l-61.22,0.37v0.729l0.18,1.09l0.55,0.73l0.54,0.73l0.92,1.09l1.271,0.729l1.28,0.36
				l1.819,0.729l1.641,0.37l1.819,0.36l2.19,0.37h2.55l1.45,0.359h3.28h8.199l0.181,13.12h-7.28h-5.83h-3.65l-4.189-0.37
				l-2.18-0.359l-2.92-0.37l-3.28-0.72l-2.37-1.101l-3.46-1.46l-1.271-0.72l-1.64-1.46l-1.28-1.46l-1.64-1.82l-0.91-1.46l-0.91-2.18
				l-0.37-2.19l-0.18-3.28l-0.18-3.279v-2.55v-11.66l0.18-4.74l0.91-2.91l0.92-1.83l1.09-1.45l1.09-1.46l1.82-1.46l2.55-1.819
				l1.83-1.091l2.73-1.1l2.55-0.729l2.92-0.73l2.18-0.36l3.46-0.359h2.37h4.92h14.94h7.84l4.92,0.359l1.82,0.36l3.64,1.1l2,1.091
				l1.28,0.729l2.37,1.46l1.27,1.09l1.83,1.82l0.54,0.73l1.1,1.46l0.91,1.819l0.36,1.82l0.18,1.46l0.19,3.65l0.18,4.729v3.65v3.279
				V359.454z M949.02,347.424v-4.37l-0.19-1.46l-0.36-0.72l-0.729-0.73l-1.45-0.729l-0.92-0.37l-1.271-0.36h-0.909l-1.46-0.359
				h-0.91l-1.28-0.37h-0.91h-9.649h-9.11h-5.84h-2.73l-1.27,0.37h-1.28l-0.91,0.359h-1.09l-1.28,0.36l-1.64,0.729l-0.91,0.73
				l-0.91,1.46v5.46H949.02z"/>
			<polygon fill="#008C99" points="877.049,325.563 877.049,339.044 854.089,339.044 854.089,382.044 838.969,382.044 
				838.969,339.044 830.409,339.044 830.409,325.563 838.969,325.563 838.969,310.624 854.089,310.624 854.089,325.563 			"/>
			<polygon fill="#008C99" points="820.929,362.733 820.929,365.644 820.749,367.834 820.379,369.654 819.839,371.483 
				819.289,372.574 818.379,374.394 817.649,375.124 816.379,376.214 815.279,376.944 813.639,378.034 812.729,378.764 
				810.909,379.494 809.639,379.864 808.729,380.224 807.27,380.584 805.989,380.584 804.169,380.954 802.159,381.313 
				800.529,381.313 797.789,381.313 793.969,381.313 791.229,381.313 786.859,381.313 750.419,381.684 750.599,368.204 
				778.659,368.204 790.499,368.204 797.609,368.204 800.159,368.204 802.529,367.834 803.439,367.474 804.349,366.744 
				804.899,366.374 805.629,365.284 805.629,364.554 805.629,363.464 805.629,362.733 805.259,362.004 804.719,361.273 
				803.439,360.544 801.619,360.184 800.709,360.184 799.979,359.813 796.149,359.813 791.959,359.813 783.029,359.813 
				778.299,359.813 774.829,359.813 771.369,359.454 769.549,359.094 765.539,358.364 762.989,357.634 761.539,357.264 
				759.529,356.534 757.349,355.444 756.069,354.354 754.609,353.254 753.52,352.164 751.699,349.614 750.779,345.974 
				750.599,342.694 750.599,339.414 750.969,337.224 751.329,335.404 752.609,332.854 753.699,331.394 754.979,330.304 
				756.249,329.214 758.069,328.114 760.259,327.384 761.349,327.023 762.989,326.294 765.359,325.924 767.549,325.563 
				769.369,325.563 771.919,325.563 776.839,325.204 781.759,325.204 792.139,325.204 791.959,338.324 781.389,338.324 
				778.119,338.324 773.56,338.324 772.099,338.324 770.649,338.684 769.549,338.684 768.639,339.044 766.819,339.414 
				765.909,339.773 765.539,340.874 765.359,341.594 765.359,342.324 765.539,343.784 765.729,344.514 766.449,345.244 
				767.729,345.604 769.549,345.974 770.829,345.974 772.829,346.334 788.129,346.334 798.159,346.334 801.979,346.334 
				807.81,347.063 811.459,348.523 812.909,348.884 814.549,349.974 815.829,350.704 817.469,352.164 818.749,353.983 
				819.109,354.714 819.839,356.174 820.379,357.634 820.749,359.454 820.929,359.813 820.929,361.644 			"/>
			<polygon fill="#008C99" points="738.759,324.834 738.759,387.874 738.399,390.063 737.849,391.884 737.479,392.614 
				736.749,393.704 736.209,394.434 735.119,395.894 734.199,396.624 733.289,397.354 731.839,398.444 730.749,398.804 
				729.469,399.534 726.919,400.264 726.189,400.634 723.449,401.364 721.819,401.724 720.719,401.724 718.539,402.084 
				715.799,402.454 713.799,402.454 710.699,402.454 707.239,402.454 696.31,402.454 696.31,389.694 715.989,389.694 
				719.079,389.694 720.539,389.334 721.449,389.334 722.549,388.604 722.909,388.244 723.089,387.144 723.27,386.784 
				723.27,386.054 723.449,381.313 703.959,381.313 692.119,380.954 686.289,380.954 682.829,380.584 680.999,380.584 
				678.819,380.224 676.989,379.864 674.629,379.134 671.889,378.034 670.069,376.944 668.429,375.854 666.789,374.394 
				665.52,373.304 664.419,371.844 663.879,370.754 663.149,368.924 662.779,367.104 662.779,365.284 662.599,362.733 
				662.599,356.534 662.419,325.204 677.359,325.204 677.359,353.983 677.539,358.724 677.539,362.004 677.719,363.824 
				677.909,364.924 678.449,365.644 678.819,366.014 679.549,366.374 680.459,366.744 681.729,367.104 682.639,367.474 
				684.279,367.834 685.919,367.834 687.379,367.834 691.209,367.834 696.859,368.204 701.959,368.204 710.52,368.204 
				723.449,368.204 723.449,324.834 			"/>
			<polygon fill="#008C99" points="651.119,357.634 651.119,366.014 650.759,368.563 650.029,371.114 649.479,372.204 
				648.209,374.394 646.749,375.854 644.56,377.674 642.919,378.404 641.279,379.134 639.459,379.864 636.359,380.584 
				632.539,381.313 630.169,381.684 627.979,382.044 626.889,382.044 571.499,382.044 571.319,368.563 612.859,368.563 
				624.52,368.563 628.529,368.204 630.719,367.834 631.81,367.474 633.079,366.744 634.179,366.014 634.909,365.284 
				635.449,364.554 635.639,363.094 635.639,361.644 635.639,360.184 635.089,356.904 633.81,355.444 632.539,354.714 
				631.259,354.354 629.619,353.624 627.439,353.254 625.249,353.254 621.789,353.254 617.049,352.894 601.199,352.894 
				593.909,352.534 587.349,351.434 582.619,349.974 579.339,348.523 576.419,345.974 574.229,343.784 572.779,341.233 
				571.869,337.224 571.679,335.404 571.679,328.483 572.049,326.294 572.409,324.104 573.139,322.284 574.779,319.733 
				576.239,317.914 577.879,316.824 580.429,314.994 582.619,314.273 585.529,313.174 587.719,312.444 590.629,312.084 
				592.999,311.714 596.639,311.714 598.829,311.354 601.929,311.354 605.029,311.354 608.119,311.354 611.579,310.983 
				615.229,310.983 615.229,324.834 601.379,324.834 598.469,324.834 596.459,324.834 594.459,325.204 592.089,325.563 
				590.819,325.924 589.719,325.924 588.809,326.654 588.259,327.023 587.719,327.754 587.169,328.844 586.989,329.574 
				586.989,331.034 586.989,335.034 588.079,336.494 588.629,336.864 590.089,337.594 591.179,337.954 592.089,338.324 
				593.549,338.684 595.729,339.044 597.739,339.414 599.739,339.414 602.289,339.414 617.599,339.414 625.249,339.414 
				630.529,340.144 633.27,340.504 636.359,341.233 639.099,342.324 641.279,343.424 643.469,344.514 645.659,345.974 
				646.749,347.424 648.209,349.254 649.479,350.704 650.579,353.254 650.759,354.354 651.119,356.174 			"/>
			<polygon fill="#008C99" points="596.829,211.144 596.829,213.334 596.639,215.514 596.279,217.704 595.919,220.254 
				595.549,222.444 595.189,224.994 594.639,227.544 593.909,230.094 593.369,232.274 592.639,234.834 591.909,237.014 
				591.179,239.204 590.449,241.384 589.719,243.574 588.809,245.394 588.079,247.584 587.169,249.404 586.259,251.594 
				585.349,253.414 584.439,255.234 583.529,257.054 582.619,258.884 581.699,261.064 580.609,262.884 579.519,264.714 
				578.609,266.534 577.509,268.354 576.239,270.174 575.149,272.364 573.869,274.184 572.779,276.374 571.499,278.194 
				570.229,280.384 568.769,282.204 567.489,284.384 566.039,286.574 564.399,288.764 562.939,290.944 561.479,293.134 
				559.839,295.684 558.199,297.874 556.559,300.054 554.919,302.604 553.279,304.794 551.639,306.983 549.819,309.164 
				548.179,311.714 546.539,313.904 544.899,316.094 543.259,318.273 541.619,320.464 539.979,322.654 538.339,324.474 
				536.879,326.654 535.239,328.844 533.599,331.034 531.969,333.214 530.329,335.404 528.679,337.594 526.859,340.144 
				525.039,342.694 522.669,345.604 520.119,348.884 517.209,353.254 513.559,357.994 509.189,363.824 504.269,370.384 
				468.379,342.694 469.649,340.874 470.929,339.414 472.199,337.594 473.299,336.134 474.389,334.674 475.479,333.584 
				476.389,332.124 477.309,331.034 478.219,329.934 479.129,328.844 479.859,327.754 480.769,326.654 481.499,325.563 
				482.219,324.474 483.139,323.374 484.049,322.284 484.959,321.194 485.869,319.733 486.959,318.273 487.869,317.184 
				488.969,315.724 490.059,314.273 491.149,312.813 492.249,311.354 493.159,309.894 494.249,308.804 495.339,307.344 
				496.249,305.884 497.349,304.434 498.439,302.974 499.349,301.514 500.439,300.054 501.539,298.604 502.629,297.144 
				503.719,295.684 504.819,294.224 505.909,292.774 506.999,290.944 508.099,289.484 509.369,288.034 510.459,286.214 
				511.559,284.384 512.649,282.934 513.929,281.104 515.019,279.284 516.109,277.464 517.209,276.004 518.299,274.184 
				519.389,272.364 520.299,270.544 521.399,269.084 522.309,267.264 523.219,265.804 524.129,263.984 525.039,262.524 
				525.949,261.064 526.679,259.244 527.409,257.784 528.319,256.324 529.049,254.874 529.599,253.414 530.329,251.954 
				531.049,250.504 531.599,249.404 532.149,247.944 532.689,246.494 533.239,245.034 533.789,243.944 534.329,242.484 
				534.879,241.024 535.429,239.564 535.789,237.744 536.339,236.284 536.879,234.464 537.249,233.004 537.789,231.184 
				538.159,229.364 538.519,227.544 538.889,225.724 539.249,223.534 539.429,221.714 539.619,219.894 539.799,218.064 
				539.979,216.614 540.159,214.784 540.159,212.964 540.159,211.144 539.979,209.684 539.979,208.224 539.799,206.404 
				539.619,204.954 539.429,203.494 539.069,202.034 538.709,200.574 538.339,199.114 537.789,197.664 537.249,196.204 
				536.699,194.744 536.159,193.654 535.429,192.194 534.699,190.734 533.969,189.644 533.059,188.184 532.329,187.094 
				531.419,185.634 530.509,184.544 529.409,183.454 528.319,182.354 527.229,181.264 526.129,180.174 525.039,179.074 
				523.769,177.984 522.309,176.894 521.029,175.794 519.579,175.064 518.119,173.974 516.659,173.244 515.199,172.154 
				513.559,171.424 512.099,170.694 510.649,169.964 509.009,169.234 507.549,168.514 505.909,167.784 504.269,167.054 
				502.449,166.684 500.629,165.954 498.619,165.594 496.439,164.864 494.069,164.134 491.699,163.774 489.149,163.044 
				486.599,162.684 483.859,161.954 481.129,161.584 478.399,161.224 475.479,160.854 472.749,160.494 469.829,160.124 
				467.099,159.764 464.369,159.404 461.819,159.404 459.269,159.034 456.899,158.674 454.529,158.674 452.339,158.674 
				450.339,158.304 448.339,158.304 446.149,158.304 444.139,158.304 441.959,158.304 439.769,158.304 437.399,158.304 
				434.849,158.304 432.299,158.304 429.749,158.304 427.199,158.304 424.649,158.304 422.099,158.304 419.729,158.304 
				417.359,158.674 415.179,158.674 412.989,158.674 410.979,158.674 408.979,159.034 407.159,159.034 405.339,159.034 
				403.699,159.404 402.059,159.404 400.419,159.404 398.779,159.764 397.319,159.764 395.679,159.764 394.219,160.124 
				392.579,160.124 391.119,160.494 389.489,160.494 387.849,160.494 386.209,160.854 384.569,160.854 382.739,161.224 
				381.099,161.224 379.459,161.584 377.639,161.954 375.999,161.954 374.359,162.314 372.719,162.314 371.079,162.684 
				369.259,162.684 367.619,163.044 365.799,163.404 363.979,163.404 362.159,163.774 360.329,164.134 358.329,164.134 
				356.319,164.504 354.319,164.864 352.129,165.234 349.949,165.594 347.579,165.954 345.029,166.324 342.479,166.684 
				339.929,167.054 337.379,167.414 334.639,167.784 332.089,168.144 329.719,168.514 327.349,169.234 325.169,169.604 
				322.979,169.964 320.979,169.964 319.159,170.334 317.329,170.694 315.509,171.064 313.689,171.424 312.049,171.784 
				310.229,172.154 308.589,172.514 306.769,172.514 305.129,172.884 303.299,173.244 301.479,173.614 299.659,173.974 
				297.839,174.344 296.019,174.704 294.009,175.064 292.189,175.434 290.189,175.794 288.179,176.164 286.359,176.524 
				284.359,177.254 282.349,177.624 280.529,177.984 278.529,178.344 276.699,178.714 274.699,179.074 272.699,179.444 
				270.509,180.174 268.319,180.534 265.949,180.904 263.589,181.624 261.029,181.994 258.119,182.724 254.839,183.454 
				251.379,184.174 247.369,185.274 242.809,186.004 237.709,187.454 236.259,177.254 239.719,176.894 242.629,176.164 
				244.999,175.794 246.819,175.434 248.649,175.064 249.919,174.704 251.199,174.344 252.289,173.974 253.379,173.974 
				254.479,173.614 255.569,173.614 256.659,173.244 257.759,172.884 258.849,172.884 259.939,172.514 261.029,172.514 
				262.129,172.154 263.219,171.784 264.499,171.784 265.589,171.424 266.869,171.064 267.959,171.064 269.049,170.694 
				270.139,170.334 271.239,170.334 272.329,169.964 273.239,169.964 274.329,169.604 275.429,169.234 276.519,169.234 
				277.619,168.874 278.889,168.514 280.169,168.514 281.619,168.144 283.079,167.784 284.719,167.414 286.359,167.054 
				288.179,166.684 289.999,166.324 291.829,165.954 293.829,165.594 296.019,165.234 298.019,164.864 300.389,164.504 
				302.579,163.774 304.939,163.404 307.309,163.044 309.859,162.684 312.409,161.954 314.969,161.584 317.519,161.224 
				320.069,160.494 322.619,160.124 325.169,159.764 327.539,159.404 330.089,159.034 332.279,158.674 334.639,158.304 
				336.829,157.944 339.019,157.574 341.199,157.214 343.389,156.844 345.759,156.484 347.939,156.124 350.309,155.754 
				352.679,155.394 355.229,155.024 357.599,154.664 360.149,154.294 362.519,153.934 364.889,153.934 367.259,153.574 
				369.439,153.204 371.629,152.844 373.819,152.474 375.819,152.474 378.009,152.114 380.189,151.744 382.379,151.744 
				384.749,151.384 387.119,151.014 389.669,150.654 392.219,150.654 394.949,150.294 397.869,149.924 400.599,149.564 
				403.509,149.564 406.429,149.194 409.529,148.834 412.439,148.464 415.539,148.464 418.639,148.104 421.549,148.104 
				424.649,147.734 427.749,147.734 430.659,147.374 433.579,147.374 436.489,147.014 439.409,147.014 442.319,147.014 
				445.059,146.644 447.789,146.644 450.519,146.644 453.069,146.644 455.619,146.284 458.169,146.284 460.719,146.284 
				463.089,146.284 465.459,146.284 468.009,146.284 470.379,146.284 472.749,146.284 475.119,146.284 477.669,146.284 
				480.039,146.284 482.409,146.644 484.769,146.644 486.959,146.644 489.329,146.644 491.519,147.014 493.879,147.014 
				495.889,147.014 498.079,147.374 500.079,147.374 502.269,147.734 504.269,147.734 506.269,148.104 508.099,148.104 
				510.099,148.464 512.099,148.464 513.929,148.834 515.929,149.194 517.929,149.194 519.939,149.564 522.129,149.924 
				524.309,150.294 526.499,150.654 528.869,151.014 531.239,151.384 533.599,151.744 535.969,152.474 538.159,152.844 
				540.349,153.204 542.349,153.934 544.349,154.294 545.989,154.664 547.819,155.394 549.459,155.754 551.089,156.124 
				552.729,156.844 554.369,157.574 556.019,158.304 557.839,159.034 559.839,159.764 561.849,160.854 563.849,161.584 
				565.669,162.684 567.679,163.404 569.499,164.504 571.139,165.234 572.589,166.324 574.049,167.054 575.329,167.784 
				576.419,168.874 577.509,169.604 578.609,170.334 579.519,171.064 580.429,171.784 581.339,172.884 582.249,173.614 
				583.159,174.344 584.069,175.434 584.979,176.164 585.889,177.254 586.619,178.344 587.539,179.444 588.259,180.534 
				588.989,181.624 589.899,182.724 590.629,184.174 591.179,185.274 591.909,186.734 592.639,187.824 593.179,189.284 
				593.729,190.734 594.279,192.194 594.639,193.654 595.189,195.114 595.549,196.564 595.919,198.024 596.099,199.844 
				596.459,201.674 596.639,203.494 596.829,205.314 596.829,207.134 596.829,209.324 			"/>
			<rect x="438.309" y="234.104" fill="#008C99" width="15.67" height="71.42"/>
			<polygon fill="#008C99" points="449.789,431.244 443.419,437.794 437.769,443.634 431.209,449.464 423.009,456.744 
				417.359,461.483 413.169,465.134 353.959,465.134 358.509,461.483 364.159,456.744 370.349,451.644 377.099,445.454 
				382.739,440.354 388.569,434.523 394.399,428.694 401.149,422.134 407.159,415.934 412.259,410.464 419.179,402.454 			"/>
			<path fill="#008C99" d="M426.289,278.194v6.19l-0.18,4.01l-0.37,3.65l-0.54,2.18l-0.55,1.1l-1.28,1.82l-0.91,1.46l-1.82,1.82
				l-1.27,0.73l-1.1,0.72l-1.64,0.73l-2.18,1.1l-2.19,0.36l-1.46,0.37l-1.46,0.36l-2.18,0.36h-1.28h-1.09h-36.08h-1.64l-2.36-0.36
				l-2.19-0.36l-2.55-0.73l-2.01-0.73l-2.18-1.1l-1.28-0.72l-2.37-1.46l-1.63-1.09l-1.65-1.46l-0.72-1.1l-1.28-1.82l-0.36-1.09
				l-0.55-1.82v-0.73l-0.18-2.19l-0.18-1.46v-0.36v-6.56l0.36-2.91l0.36-0.73l0.73-1.46l0.73-1.09l1.64-2.19l0.73-0.73l1.28-1.09
				l1.45-1.1l1.1-0.36l1.27-0.73l1.28-0.73l1.82-0.73l1.27-0.36l2.56-0.73l2.18-0.36h1.82l1.83-0.37h1.09h0.91h39.72v-6.56
				l-0.18-0.73l-0.91-0.36l-1.46-0.73h-1.09l-0.73-0.36h-20.77v-12.39h19.86h1.27l2.19,0.36h1.45l1.28,0.37l1.64,0.36l1.64,0.73
				l1.46,0.73l1.45,0.36l1.64,1.09l1.65,1.1l0.72,0.73l0.91,0.73l1.28,1.45l1.09,1.46l0.37,1.09l0.54,1.1l0.55,2.18l0.18,1.1
				l0.18,7.29v1.09l0.19,1.82v1.46L426.289,278.194z M410.979,286.934v-1.45v-2.19v-5.83h-38.8h-3.28h-1.64l-2.92,0.73l-1.27,0.36
				l-1.1,1.1l-1.09,0.73l-0.55,1.45v1.46v3.64v1.1l0.19,1.09l0.54,0.73l0.91,0.73l0.91,0.36l0.92,0.73h1.27l1.28,0.37h2.18h36.44
				h1.1l1.09-0.37l1.64-0.36l0.91-0.37l0.73-1.09l0.18-0.73l0.18-1.09L410.979,286.934z"/>
			<polygon fill="#008C99" points="338.649,249.404 338.649,262.524 315.509,262.524 315.509,305.524 300.389,305.524 
				300.389,262.524 291.829,262.524 291.829,249.404 300.389,249.404 300.389,234.104 315.509,234.104 315.509,249.404 			"/>
			<rect x="265.589" y="251.224" fill="#008C99" width="14.94" height="54.3"/>
			<path fill="#008C99" d="M252.109,269.084v16.76l-0.18,4.37l-0.37,1.83l-0.36,1.09l-0.91,1.82l-1.1,1.82l-0.36,0.73l-1.46,1.46
				l-1.28,1.09l-1.64,1.1l-2.36,1.09l-2.55,1.09l-2.19,0.37l-2.37,0.36l-3.46,0.73h-4.19l-9.48,0.36h-13.11l-6.02-0.36l-3.82-0.73
				l-5.1-1.46l-3.47-1.09l-2.55-1.46l-1.82-1.09l-2.37-1.82l-1.27-1.1l-1.28-2.18l-1.09-2.19l-0.55-2.19l-0.36-1.82l-0.37-1.82
				v-51.38h15.31v14.94h34.98h2.55l2.37,0.37h2.18l3.29,0.73l2.55,0.36l1.64,0.73l1.63,0.36l1.46,0.73l2.01,1.09l1.45,1.1l1.1,1.09
				l1.09,1.09l0.91,1.1l0.91,1.45l0.91,1.46l0.73,1.46l0.19,1.09l0.18,1.46v2.19V269.084z M239.169,285.844v-16.4l-0.18-1.45
				l-0.18-0.73l-0.37-1.46l-0.54-0.73l-0.92-0.36l-0.72-0.37l-0.91-0.36l-0.92-0.37l-1.64-0.36l-2.55-0.37l-1.64-0.36h-2h-2h-36.81
				v21.13v0.37l0.18,1.09l0.55,2.19l0.91,1.09l0.55,0.37l1.27,0.72l2.37,0.73l4.01,1.1l2.73,0.36l4.92,0.37h12.39h9.11l3.28-0.37
				l2.73-0.36l1.64-0.37l1.1-0.36l1.09-0.73l0.91-0.73l0.73-0.36l0.55-1.1L239.169,285.844z"/>
			<polygon fill="#008C99" points="208.739,183.814 212.389,193.654 204.919,195.844 196.539,198.024 188.879,199.844 
				181.959,202.034 181.959,191.104 187.969,189.644 192.529,188.184 197.079,187.094 202.549,185.634 			"/>
			<polygon fill="#008C99" points="163.919,249.044 163.919,261.794 153.899,262.164 152.259,262.164 149.159,262.164 
				147.709,262.524 146.799,262.524 144.609,263.254 143.879,263.614 142.059,264.714 141.509,265.804 141.329,267.624 
				141.329,305.884 126.389,305.884 126.389,266.164 126.389,265.074 126.749,263.254 127.299,261.434 128.029,259.244 
				129.669,256.694 131.129,255.234 132.579,253.774 134.409,252.684 136.589,251.954 138.779,251.224 140.969,250.504 
				143.879,249.774 146.609,249.404 149.349,249.044 152.439,249.044 			"/>
			<path fill="#008C99" d="M114.729,279.284v3.28l-0.18,4.01l-0.37,2.55l-0.36,2.19l-1.09,2.55l-1.28,1.82l-1.46,1.82l-1.64,1.46
				l-3.46,2.19l-2.91,1.09l-2.37,0.73l-1.83,0.73l-3.27,0.36l-3.83,0.37l-4.74,0.36l-7.1,0.36h-7.29h-5.29h-5.1l-4.19-0.36
				l-4.55-0.36l-3.65-0.73l-4.73-1.46l-2.74-1.09l-3.09-1.46l-2.56-1.46l-1.82-1.82l-1.27-2.19l-1.28-2.55l-0.54-2.19l-0.55-4.37
				l-0.18-3.64l-0.19-9.11v-7.29l0.37-9.11v-1.82l0.18-2.19l0.55-2.91l0.54-2.19l0.73-1.09l1.64-2.19l2.19-1.82l2.19-1.82l2.36-1.1
				l2.19-1.09l2.92-1.09l3.46-0.73l3.82-0.73l3.47-0.36h3.46h3.82h7.66h2.73h5.1h4.74h4.73l3.65,0.36l4.37,0.73l3.64,0.73l3.47,1.46
				l3.09,1.82l2.19,1.45l1.46,1.83l1.64,2.18l1.09,2.19l0.37,1.46l0.54,4.01l0.18,2.91l0.19,3.28l0.18,5.1V279.284z M98.329,283.294
				v-2.55v-16.76v-6.93v-2.91l-0.36-1.46l-0.37-0.73l-0.54-0.36l-1.28-1.09l-1.82-0.73l-3.28-1.1l-4.92-0.36h-8.2h-3.83h-1.82h-5.46
				h-6.2l-4.19,0.36h-1.64l-1.27,0.37l-1.46,0.36h-1.28l-1.27,0.73l-0.91,0.37l-0.91,1.09l-0.73,0.73l-0.55,1.09l-0.36,1.46v1.82
				l-0.19,2.55v5.1l-0.18,11.3v8.01v2.92l0.55,1.09l0.54,0.73l0.73,0.37l1.1,0.72l1.45,0.73l1.83,0.37l2.73,0.73l4.37,0.36
				l6.38,0.37h8.02h11.11l6.92-0.73l2.74-0.73l1.64-0.73l1.27-0.73l0.55-0.73l0.54-0.73l0.19-0.73l0.18-1.82L98.329,283.294z"/>
		</g>
		<g>
		</g>
	</g>
</g>
<g id="LWPOLYLINE_20_">
	<g id="XMLID_2_">
		<g>
			<radialGradient id="SVGID_1_" cx="233.5791" cy="179.2139" r="44.5982" gradientUnits="userSpaceOnUse">
				<stop  offset="0" style="stop-color:#FFFFFF"/>
				<stop  offset="1" style="stop-color:#000000"/>
			</radialGradient>
			<path fill="url(#SVGID_1_)" d="M233.634,173.952c2.613,2.614,4.245,6.225,4.245,10.232c0,8-6.495,14.478-14.494,14.478
				c-7.983,0-14.478-6.479-14.478-14.478c0-7.999,6.495-14.478,14.478-14.478C227.377,169.707,231.005,171.322,233.634,173.952z"/>
		</g>
		<g>
		</g>
	</g>
</g>
<g id="LWPOLYLINE_21_">
	<radialGradient id="SVGID_2_" cx="484.3291" cy="354.7139" r="153.2644" gradientUnits="userSpaceOnUse">
		<stop  offset="0" style="stop-color:#FFFFFF"/>
		<stop  offset="1" style="stop-color:#000000"/>
	</radialGradient>
	<path fill="url(#SVGID_2_)" d="M416.606,387.62c0,25.152,20.39,45.542,45.542,45.542c25.153,0,45.542-20.39,45.542-45.542l0,0l0,0
		c0-25.153-20.39-45.543-45.542-45.543C436.997,342.077,416.606,362.467,416.606,387.62L416.606,387.62L416.606,387.62z"/>
</g>
</svg>
